<svg id="Capa_1" data-name="Capa 1" xmlns="http://www.w3.org/2000/svg" xmlns:xlink="http://www.w3.org/1999/xlink" viewBox="-130 0 900 400"><defs><linearGradient id="linear-gradient" x1="47.54" y1="194.23" x2="210.82" y2="25.14" gradientUnits="userSpaceOnUse"><stop offset="0" stop-color="#0b72b5"/><stop offset="1" stop-color="#559dcb"/></linearGradient></defs><title>ToolBone_website_Prime</title><g id="Gear"><path d="M177.83,226.53a122.11,122.11,0,0,1-25.66,10.41,6.78,6.78,0,0,1-8.22-4.35l-.54-1.4a26.89,26.89,0,0,0-50.24,1,6.75,6.75,0,0,1-8.29,4.17A121.58,121.58,0,0,1,59.4,225.44a6.81,6.81,0,0,1-2.76-8.8c4.64-9.71,2.54-22.78-5-30.51a27,27,0,0,0-30.33-5.61,6.8,6.8,0,0,1-8.74-3,120.3,120.3,0,0,1-5.73-12.1,118.3,118.3,0,0,1-4.55-13.29A6.78,6.78,0,0,1,6.58,144a27,27,0,0,0,18.25-25.24c.11-10.88-7.58-21.82-17.8-25.52a6.78,6.78,0,0,1-4.18-8.31A121.43,121.43,0,0,1,13.62,59.69,6.78,6.78,0,0,1,22.4,56.9a27.08,27.08,0,0,0,30.45-5.06,26.7,26.7,0,0,0,6-29.5c-1.31-3.23-.5-8,2.53-9.66A122.36,122.36,0,0,1,87,2.26a6.61,6.61,0,0,1,8.19,4.26c4.5,11,14.4,18.21,25.25,18.31A27,27,0,0,0,146,7.05a6.78,6.78,0,0,1,8.3-4.17,121.12,121.12,0,0,1,25.47,10.88,6.8,6.8,0,0,1,2.76,8.8c-4.64,9.72-2.49,22.82,5,30.51a27.11,27.11,0,0,0,30.36,5.62,6.76,6.76,0,0,1,8.72,3A121.51,121.51,0,0,1,236.94,87a6.76,6.76,0,0,1-4.32,8.22,27.05,27.05,0,0,0-18.27,25.22c-.08,10.91,7.61,21.86,17.8,25.54a6.78,6.78,0,0,1,4.18,8.29,120.82,120.82,0,0,1-10.75,25.22,6.77,6.77,0,0,1-8.78,2.78A26.88,26.88,0,0,0,180.43,217C181.73,220.21,180.86,224.88,177.83,226.53Z" fill="url(#linear-gradient)"/><path d="M177.83,226.53c3-1.65,3.9-6.32,2.6-9.52A26.88,26.88,0,0,1,216.8,182.3a6.77,6.77,0,0,0,8.78-2.78,120.82,120.82,0,0,0,10.75-25.22,6.78,6.78,0,0,0-4.18-8.29c-10.19-3.68-17.88-14.63-17.8-25.54a27.05,27.05,0,0,1,18.27-25.22A6.76,6.76,0,0,0,236.94,87a121.51,121.51,0,0,0-10.28-25.39,6.76,6.76,0,0,0-8.72-3,27.11,27.11,0,0,1-30.36-5.62c-7.52-7.69-9.67-20.79-5-30.51a6.8,6.8,0,0,0-2.76-8.8A121.12,121.12,0,0,0,154.32,2.88,6.78,6.78,0,0,0,146,7.05a27,27,0,0,1-25.56,17.78c-10.85-.1-20.75-7.29-25.25-18.31A6.61,6.61,0,0,0,87,2.26,122.36,122.36,0,0,0,61.36,12.68c-3,1.65-3.84,6.43-2.53,9.66a26.7,26.7,0,0,1-6,29.5A27.08,27.08,0,0,1,22.4,56.9a6.78,6.78,0,0,0-8.78,2.79A121.43,121.43,0,0,0,2.85,84.88,6.78,6.78,0,0,0,7,93.19c10.22,3.7,17.91,14.64,17.8,25.52A27,27,0,0,1,6.58,144a6.78,6.78,0,0,0-4.33,8.23A118.3,118.3,0,0,0,6.8,165.47a120.3,120.3,0,0,0,5.73,12.1,6.8,6.8,0,0,0,8.74,3,27,27,0,0,1,30.33,5.61c7.58,7.73,9.68,20.8,5,30.51a6.81,6.81,0,0,0,2.76,8.8,121.58,121.58,0,0,0,25.48,10.88,6.75,6.75,0,0,0,8.29-4.17,26.89,26.89,0,0,1,50.24-1l.54,1.4a6.78,6.78,0,0,0,8.22,4.35A122.11,122.11,0,0,0,177.83,226.53Z" fill="none" stroke="#e8e9ea" stroke-miterlimit="10" stroke-width="4"/></g><g id="Bone"><text transform="translate(258.49 145.93)" font-size="112" fill="#a8c7db" font-family="Amblas" letter-spacing="-0.15em">t<tspan x="24.44" y="0" fill="#fff" letter-spacing="-0.14em">o</tspan><tspan x="77.93" y="0" fill="#fff" letter-spacing="-0.12em">o</tspan><tspan x="133.39" y="0" fill="#fff" letter-spacing="-0.11em">l</tspan><tspan x="146.22" y="0" fill="#fff" letter-spacing="-0.14em">b</tspan><tspan x="199.7" y="0" letter-spacing="-0.12em">o</tspan><tspan x="254.8" y="0" letter-spacing="-0.12em">n</tspan><tspan x="301.96" y="0" letter-spacing="-0.11em">e</tspan></text><text transform="translate(267.33 183.08)" font-size="30" fill="#fcfcfc" font-family="Amblas" letter-spacing="-0.12em">W<tspan x="28.92" y="0" letter-spacing="-0.08em">e </tspan><tspan x="54.51" y="0" letter-spacing="-0.07em">h</tspan><tspan x="68.67" y="0" letter-spacing="-0.06em">a</tspan><tspan x="85.23" y="0" letter-spacing="-0.08em">v</tspan><tspan x="98.62" y="0" letter-spacing="-0.08em">e </tspan><tspan x="124.2" y="0" letter-spacing="-0.07em">t</tspan><tspan x="133.22" y="0" letter-spacing="-0.07em">h</tspan><tspan x="147.29" y="0" letter-spacing="-0.08em">e </tspan><tspan x="172.87" y="0" letter-spacing="-0.1em">t</tspan><tspan x="180.97" y="0" letter-spacing="-0.09em">o</tspan><tspan x="196.81" y="0" letter-spacing="-0.07em">o</tspan><tspan x="213.15" y="0" letter-spacing="-0.07em">l</tspan><tspan x="217.78" y="0" letter-spacing="-0.08em">s </tspan><tspan x="240.21" y="0" letter-spacing="-0.1em">o</tspan><tspan x="255.64" y="0" letter-spacing="-0.08em">f </tspan><tspan x="275.89" y="0" letter-spacing="-0.1em">t</tspan><tspan x="283.99" y="0" letter-spacing="-0.08em">o</tspan><tspan x="299.85" y="0" letter-spacing="-0.08em">d</tspan><tspan x="316.01" y="0" letter-spacing="-0.07em">a</tspan><tspan x="332.38" y="0" letter-spacing="-0.08em">y</tspan></text></g><path d="M168,94.5h0m-92.38.07h0m90.2,2.49,9.45,11.06-4,4.75a10.6,10.6,0,0,0,0,13.66l4,4.71-9.44,11.06L153,127.4a12.24,12.24,0,0,0-4-3.06,11.86,11.86,0,0,0-5.16-1.19H95.32a12,12,0,0,0-9.12,4.25l-12.8,15L64,131.32l4-4.67a10.68,10.68,0,0,0,0-13.8l-4-4.67L73.4,97.12l12.8,15a12,12,0,0,0,4,3.06,11.82,11.82,0,0,0,5.15,1.19h48.5a12,12,0,0,0,9.11-4.26l12.86-15m0-10.65a6.12,6.12,0,0,0-4.66,2.25l-15,17.59a3,3,0,0,1-2.27,1.1H95.31a2.78,2.78,0,0,1-1.23-.29,3.33,3.33,0,0,1-1-.81l-15-17.53a6,6,0,0,0-9.32,0l-14.9,17.43a3.23,3.23,0,0,0,0,4l7.26,8.49a1.67,1.67,0,0,1,0,2.11l-7.31,8.55a3.16,3.16,0,0,0,0,3.94l14.95,17.49a6,6,0,0,0,9.32,0l15-17.53a3,3,0,0,1,2.28-1.1h48.6a2.78,2.78,0,0,1,1.23.29,3.23,3.23,0,0,1,1,.81l14.92,17.46a5.94,5.94,0,0,0,9.32,0l14.93-17.5a3.14,3.14,0,0,0,0-3.93L178,120.68a1.58,1.58,0,0,1,0-2l7.05-8.27a3.72,3.72,0,0,0,0-4.66L170.44,88.66a6.12,6.12,0,0,0-4.66-2.25Z" fill="#e8e9ea"/></svg>