<svg id="Capa_1" data-name="Capa 1" xmlns="http://www.w3.org/2000/svg" xmlns:xlink="http://www.w3.org/1999/xlink" viewBox="0 0 800 250"><defs><linearGradient id="linear-gradient" x1="127.53" y1="208.28" x2="290.81" y2="377.37" gradientTransform="matrix(1, 0, 0, -1, 0, 403)" gradientUnits="userSpaceOnUse"><stop offset="0" stop-color="#0b72b5"/><stop offset="1" stop-color="#559dcb"/></linearGradient></defs><title>toolbone_logo</title><g id="Gear"><path d="M257.83,227a122.42,122.42,0,0,1-25.66,10.41,6.78,6.78,0,0,1-8.22-4.35l-.54-1.4a26.89,26.89,0,0,0-50.24,1,6.75,6.75,0,0,1-8.29,4.17,121.79,121.79,0,0,1-25.48-10.92,6.81,6.81,0,0,1-2.76-8.8c4.64-9.71,2.54-22.78-5-30.51A27,27,0,0,0,101.31,181a6.8,6.8,0,0,1-8.74-3,119.38,119.38,0,0,1-5.73-12.1,117.62,117.62,0,0,1-4.55-13.29,6.78,6.78,0,0,1,4.29-8.13,27,27,0,0,0,18.25-25.24c.11-10.88-7.58-21.82-17.8-25.52a6.78,6.78,0,0,1-4.18-8.31A121.38,121.38,0,0,1,93.62,60.19a6.78,6.78,0,0,1,8.78-2.79,27.08,27.08,0,0,0,30.45-5.06,26.71,26.71,0,0,0,6-29.5c-1.31-3.23-.5-8,2.53-9.66A122.12,122.12,0,0,1,167,2.76,6.61,6.61,0,0,1,175.19,7c4.5,11,14.4,18.21,25.25,18.31A27,27,0,0,0,226,7.55a6.79,6.79,0,0,1,8.3-4.17,121.05,121.05,0,0,1,25.47,10.88,6.81,6.81,0,0,1,2.76,8.8c-4.64,9.72-2.49,22.82,5,30.51a27.1,27.1,0,0,0,30.36,5.62,6.75,6.75,0,0,1,8.72,3A121.67,121.67,0,0,1,316.94,87.5a6.76,6.76,0,0,1-4.32,8.22,27.05,27.05,0,0,0-18.27,25.22c-.08,10.91,7.61,21.86,17.8,25.54a6.79,6.79,0,0,1,4.18,8.29A120.39,120.39,0,0,1,305.58,180a6.78,6.78,0,0,1-8.78,2.78,26.88,26.88,0,0,0-36.37,34.73C261.73,220.71,260.86,225.38,257.83,227Z" fill="url(#linear-gradient)"/><path d="M257.83,227c3-1.65,3.9-6.32,2.6-9.52A26.88,26.88,0,0,1,296.8,182.8a6.78,6.78,0,0,0,8.78-2.78,120.39,120.39,0,0,0,10.75-25.22,6.79,6.79,0,0,0-4.18-8.29c-10.19-3.68-17.88-14.63-17.8-25.54a27.05,27.05,0,0,1,18.27-25.22,6.75,6.75,0,0,0,4.32-8.25,121.84,121.84,0,0,0-10.28-25.39,6.75,6.75,0,0,0-8.72-3,27.1,27.1,0,0,1-30.36-5.62c-7.52-7.69-9.67-20.79-5-30.51a6.81,6.81,0,0,0-2.76-8.8,121.24,121.24,0,0,0-25.5-10.8A6.79,6.79,0,0,0,226,7.55a27,27,0,0,1-25.56,17.78C189.59,25.23,179.69,18,175.19,7A6.61,6.61,0,0,0,167,2.76a122.51,122.51,0,0,0-25.64,10.42c-3,1.65-3.84,6.43-2.53,9.66a26.71,26.71,0,0,1-6,29.5A27.09,27.09,0,0,1,102.4,57.4a6.78,6.78,0,0,0-8.78,2.79A121.28,121.28,0,0,0,82.85,85.38,6.78,6.78,0,0,0,87,93.69c10.22,3.7,17.91,14.64,17.8,25.52A27,27,0,0,1,86.58,144.5a6.79,6.79,0,0,0-4.33,8.23A116.83,116.83,0,0,0,86.8,166a119.38,119.38,0,0,0,5.73,12.1,6.8,6.8,0,0,0,8.74,3,27,27,0,0,1,30.33,5.61c7.58,7.73,9.68,20.8,5,30.51a6.81,6.81,0,0,0,2.76,8.8,121.13,121.13,0,0,0,25.48,10.88,6.75,6.75,0,0,0,8.29-4.17,26.89,26.89,0,0,1,50.24-1l.54,1.4a6.78,6.78,0,0,0,8.22,4.35A122.24,122.24,0,0,0,257.83,227Z" fill="none" stroke="#e8e9ea" stroke-miterlimit="10" stroke-width="4"/></g><g id="Bone"><g style="isolation:isolate"><text transform="translate(338.49 146.43)" font-size="112" fill="#a8c7db" font-family="Amblas" letter-spacing="-0.15em" style="isolation:isolate">t</text><text transform="translate(362.93 146.43)" font-size="112" fill="#fff" font-family="Amblas" letter-spacing="-0.14em" style="isolation:isolate">o</text><text transform="translate(416.42 146.43)" font-size="112" fill="#fff" font-family="Amblas" letter-spacing="-0.12em" style="isolation:isolate">o</text><text transform="translate(471.88 146.43)" font-size="112" fill="#fff" font-family="Amblas" letter-spacing="-0.11em" style="isolation:isolate">l</text><text transform="translate(484.71 146.43)" font-size="112" fill="#fff" font-family="Amblas" letter-spacing="-0.14em" style="isolation:isolate">b</text><text transform="translate(538.19 146.43)" font-size="112" fill="#a8c7db" font-family="Amblas" letter-spacing="-0.12em" style="isolation:isolate">o</text><text transform="translate(593.29 146.43)" font-size="112" fill="#a8c7db" font-family="Amblas" letter-spacing="-0.12em" style="isolation:isolate">n</text><text transform="translate(640.45 146.43)" font-size="112" fill="#a8c7db" font-family="Amblas" letter-spacing="-0.11em" style="isolation:isolate">e</text></g><g style="isolation:isolate"><text transform="translate(347.33 183.58)" font-size="30" fill="#fcfcfc" font-family="Amblas" letter-spacing="-0.12em" style="isolation:isolate">W</text><text transform="translate(376.25 183.58)" font-size="30" fill="#fcfcfc" font-family="Amblas" letter-spacing="-0.08em" style="isolation:isolate">e </text><text transform="translate(401.84 183.58)" font-size="30" fill="#fcfcfc" font-family="Amblas" letter-spacing="-0.07em" style="isolation:isolate">h</text><text transform="translate(416 183.58)" font-size="30" fill="#fcfcfc" font-family="Amblas" letter-spacing="-0.06em" style="isolation:isolate">a</text><text transform="translate(432.56 183.58)" font-size="30" fill="#fcfcfc" font-family="Amblas" letter-spacing="-0.08em" style="isolation:isolate">v</text><text transform="translate(445.95 183.58)" font-size="30" fill="#fcfcfc" font-family="Amblas" letter-spacing="-0.08em" style="isolation:isolate">e </text><text transform="translate(471.53 183.58)" font-size="30" fill="#fcfcfc" font-family="Amblas" letter-spacing="-0.07em" style="isolation:isolate">t</text><text transform="translate(480.55 183.58)" font-size="30" fill="#fcfcfc" font-family="Amblas" letter-spacing="-0.07em" style="isolation:isolate">h</text><text transform="translate(494.62 183.58)" font-size="30" fill="#fcfcfc" font-family="Amblas" letter-spacing="-0.08em" style="isolation:isolate">e </text><text transform="translate(520.2 183.58)" font-size="30" fill="#fcfcfc" font-family="Amblas" letter-spacing="-0.1em" style="isolation:isolate">t</text><text transform="translate(528.3 183.58)" font-size="30" fill="#fcfcfc" font-family="Amblas" letter-spacing="-0.09em" style="isolation:isolate">o</text><text transform="translate(544.14 183.58)" font-size="30" fill="#fcfcfc" font-family="Amblas" letter-spacing="-0.07em" style="isolation:isolate">o</text><text transform="translate(560.48 183.58)" font-size="30" fill="#fcfcfc" font-family="Amblas" letter-spacing="-0.07em" style="isolation:isolate">l</text><text transform="translate(565.11 183.58)" font-size="30" fill="#fcfcfc" font-family="Amblas" letter-spacing="-0.08em" style="isolation:isolate">s </text><text transform="translate(587.54 183.58)" font-size="30" fill="#fcfcfc" font-family="Amblas" letter-spacing="-0.1em" style="isolation:isolate">o</text><text transform="translate(602.97 183.58)" font-size="30" fill="#fcfcfc" font-family="Amblas" letter-spacing="-0.08em" style="isolation:isolate">f </text><text transform="translate(623.22 183.58)" font-size="30" fill="#fcfcfc" font-family="Amblas" letter-spacing="-0.1em" style="isolation:isolate">t</text><text transform="translate(631.32 183.58)" font-size="30" fill="#fcfcfc" font-family="Amblas" letter-spacing="-0.08em" style="isolation:isolate">o</text><text transform="translate(647.18 183.58)" font-size="30" fill="#fcfcfc" font-family="Amblas" letter-spacing="-0.08em" style="isolation:isolate">d</text><text transform="translate(663.34 183.58)" font-size="30" fill="#fcfcfc" font-family="Amblas" letter-spacing="-0.07em" style="isolation:isolate">a</text><text transform="translate(679.71 183.58)" font-size="30" fill="#fcfcfc" font-family="Amblas" letter-spacing="-0.08em" style="isolation:isolate">y</text></g></g><path d="M248,95h0m-92.38.07h0m90.2,2.49,9.45,11.06-4,4.75a10.59,10.59,0,0,0,0,13.66l4,4.71-9.44,11.06L233,127.9a12.21,12.21,0,0,0-4-3.06,11.83,11.83,0,0,0-5.16-1.19H175.32a12,12,0,0,0-9.12,4.25l-12.8,15L144,131.82l4-4.67a10.68,10.68,0,0,0,0-13.8l-4-4.67,9.4-11.06,12.8,15a12.11,12.11,0,0,0,4,3.06,11.78,11.78,0,0,0,5.15,1.19h48.5a12,12,0,0,0,9.11-4.26l12.86-15m0-10.65a6.11,6.11,0,0,0-4.66,2.25l-15,17.59a3,3,0,0,1-2.27,1.1H175.31a2.75,2.75,0,0,1-1.23-.29,3.4,3.4,0,0,1-1-.81l-15-17.53a6,6,0,0,0-8.44-.88,6.1,6.1,0,0,0-.88.88l-14.9,17.43a3.24,3.24,0,0,0,0,4l7.26,8.49a1.67,1.67,0,0,1,0,2.11l-7.31,8.55a3.16,3.16,0,0,0,0,3.94l14.95,17.49a6,6,0,0,0,8.44.88,6.1,6.1,0,0,0,.88-.88l15-17.53a3,3,0,0,1,2.28-1.1H224a2.75,2.75,0,0,1,1.23.29,3.4,3.4,0,0,1,1,.81l14.92,17.46a5.94,5.94,0,0,0,8.34,1,6.06,6.06,0,0,0,1-1l14.93-17.5a3.14,3.14,0,0,0,0-3.93l-7.36-8.6a1.57,1.57,0,0,1,0-2l7.05-8.27a3.73,3.73,0,0,0,0-4.66L250.44,89.16a6.11,6.11,0,0,0-4.66-2.25Z" fill="#e8e9ea"/></svg>