<svg id="Layer_1" data-name="Layer 1" xmlns="http://www.w3.org/2000/svg" xmlns:xlink="http://www.w3.org/1999/xlink" viewBox="0 0 650 250"><defs><clipPath id="clip-path"><path d="M246.85,112.84l-46.61,46.61,46.61,46.61h-53.3l-46.61-46.61,46.61-46.61ZM193.55,33l-86.62,86.51,26.66,26.66L246.85,33Z" fill="none"/></clipPath><linearGradient id="linear-gradient" x1="13677.78" y1="13546.15" x2="13705.75" y2="13574.09" gradientTransform="matrix(1, 0, 0, -1, 0, 252)" gradientUnits="userSpaceOnUse"><stop offset="0" stop-color="#1a237e" stop-opacity="0.4"/><stop offset="1" stop-color="#1a237e" stop-opacity="0"/></linearGradient><radialGradient id="radial-gradient" cx="176.89" cy="132.47" r="78.68" gradientTransform="matrix(1, 0, 0, -1, 0, 252)" gradientUnits="userSpaceOnUse"><stop offset="0" stop-color="#fff" stop-opacity="0.1"/><stop offset="1" stop-color="#fff" stop-opacity="0"/></radialGradient></defs><title>flutter_logo</title><g clip-path="url(#clip-path)"><path d="M173.55,186.16l73.3-73.32h-53.3l-46.61,46.61Z" fill="#39cefd"/></g><g clip-path="url(#clip-path)"><path d="M106.93,119.51,193.55,33h53.3L133.59,146.29Z" fill="#39cefd"/></g><g clip-path="url(#clip-path)"><path d="M193.55,206.13h53.3l-46.61-46.61-26.69,26.64Z" fill="#03569b"/></g><g clip-path="url(#clip-path)"><path d="M200.22,159.5l-26.67,26.66,39.62-13.7Z" fill="url(#linear-gradient)"/></g><g clip-path="url(#clip-path)"><path d="M146.92,159.48l26.66-26.66,26.64,26.66-26.64,26.68Z" fill="#16b9fd"/></g><path d="M246.85,112.84l-46.61,46.61,46.61,46.61h-53.3l-46.61-46.61,46.61-46.61ZM193.55,33l-86.62,86.51,26.66,26.66L246.85,33Z" fill="url(#radial-gradient)"/><path d="M263.67,69.45h40.41V77.3H271.91v23.93h29.17v7.85H271.91v30.31h-8.24Zm50.51,0h8.12v69.94h-8.12Zm38.54,71.44a18.66,18.66,0,0,1-13.85-5.23c-3-3.37-4.48-8.61-4.48-15V89.26h8.23v30.31c0,4.85,1.12,8.22,3.37,10.47a11.77,11.77,0,0,0,8.6,3.36,12.68,12.68,0,0,0,7.49-2.25,13.57,13.57,0,0,0,5.23-6.08,17,17,0,0,0,1.86-7.47V89.65h8.24v50.1h-7.87v-7.1h-.37a18.52,18.52,0,0,1-6.73,6.37,26.5,26.5,0,0,1-9.72,1.87Z" fill="#fff"/><path id="a" d="M409.54,140.14a15.36,15.36,0,0,1-5.6-1.12,17,17,0,0,1-4.48-2.63,13.22,13.22,0,0,1-3-4.49,14.11,14.11,0,0,1-1.12-6.08V96.75h-8.6V89.26h8.6V75.07h8.22V89.26h12v7.49h-12v27.3a8.84,8.84,0,0,0,1.5,6,6.28,6.28,0,0,0,5.23,2.25,10.67,10.67,0,0,0,5.62-1.5V139c-1.12.37-1.87.73-3,1.12Z" fill="#fff"/><path d="M444.71,140.14A15.42,15.42,0,0,1,439.1,139a17.76,17.76,0,0,1-4.49-2.63,13.61,13.61,0,0,1-3-4.49,14.41,14.41,0,0,1-1.12-6.08V96.75h-8.23V89.26h8.6V75.07h8.34V89.26h12v7.49h-12v27.3a8.84,8.84,0,0,0,1.5,6,6.25,6.25,0,0,0,5.23,2.25,10.67,10.67,0,0,0,5.62-1.5V139c-1.14.37-1.89.73-3,1.12Z" fill="#fff"/><path d="M481.37,140.89a24.22,24.22,0,0,1-21.71-12.72,27.59,27.59,0,0,1-3-13.47,32.49,32.49,0,0,1,3-13.47,23.94,23.94,0,0,1,8.6-9.71,24.49,24.49,0,0,1,25.44-.39,21.17,21.17,0,0,1,8.24,9,29.34,29.34,0,0,1,3,13.08,5.58,5.58,0,0,1-.37,2.62H464.9a25.33,25.33,0,0,0,2.61,9.73,16.49,16.49,0,0,0,6.37,6.09,20.36,20.36,0,0,0,7.85,1.87c6.37,0,11.22-3,15-9l7.1,3.37a28,28,0,0,1-9,9.73A25.74,25.74,0,0,1,481.37,141Zm14.2-31.81a13.85,13.85,0,0,0-1.87-6.35,12.91,12.91,0,0,0-4.87-5.23,14.19,14.19,0,0,0-8.21-2.25A14.72,14.72,0,0,0,470.48,99a17.65,17.65,0,0,0-5.24,9.72l30.29.36Zm18.7-19.43h7.85V97.5h.39a15.85,15.85,0,0,1,5.61-6.73,15.66,15.66,0,0,1,9-2.62,15.49,15.49,0,0,1,6,1.11v9a15,15,0,0,0-7.1-1.5,15.17,15.17,0,0,0-6.73,1.87,17.74,17.74,0,0,0-4.87,5.61,17.1,17.1,0,0,0-1.86,7.49v28h-8.26V89.65Z" fill="#fff"/><text transform="translate(260.67 179.45)" font-size="30" fill="#fff" font-family="MyriadPro-Regular, Myriad Pro"><tspan letter-spacing="0em">B</tspan><tspan x="16.38" y="0" letter-spacing="0em">y </tspan><tspan x="36.87" y="0" letter-spacing="0em">G</tspan><tspan x="56.4" y="0">oogle</tspan></text></svg>