<svg id="Layer_1" data-name="Layer 1" xmlns="http://www.w3.org/2000/svg" xmlns:xlink="http://www.w3.org/1999/xlink" viewBox="0 0 400 900"><defs><clipPath id="clip-path"><path d="M157.25,446.26l-20,20,20,20H134.38l-20-20,20-20ZM134.38,412,97.21,449.12l11.44,11.44L157.25,412Z" fill="none"/></clipPath><linearGradient id="linear-gradient" x1="3555.91" y1="-7672.98" x2="3567.91" y2="-7684.97" gradientTransform="translate(-340.91 -286.86) scale(0)" gradientUnits="userSpaceOnUse"><stop offset="0" stop-color="#1a237e" stop-opacity="0.4"/><stop offset="1" stop-color="#1a237e" stop-opacity="0"/></linearGradient><radialGradient id="radial-gradient" cx="127.23" cy="449.13" r="33.79" gradientTransform="matrix(0, 0, 0, 0, -418.49, -329.75)" gradientUnits="userSpaceOnUse"><stop offset="0" stop-color="#fff" stop-opacity="0.1"/><stop offset="1" stop-color="#fff" stop-opacity="0"/></radialGradient></defs><title>flutter_logo</title><g clip-path="url(#clip-path)"><path d="M125.8,477.72l31.45-31.46H134.38l-20,20Z" fill="#39cefd"/></g><g clip-path="url(#clip-path)"><path d="M97.21,449.12,134.38,412h22.87l-48.6,48.61Z" fill="#39cefd"/></g><g clip-path="url(#clip-path)"><path d="M134.38,486.29h22.87l-20-20L125.8,477.72Z" fill="#03569b"/></g><g clip-path="url(#clip-path)"><path d="M137.24,466.28,125.8,477.72l17-5.88Z" fill="url(#linear-gradient)"/></g><g clip-path="url(#clip-path)"><path d="M114.37,466.27l11.44-11.44,11.43,11.44-11.43,11.45Z" fill="#16b9fd"/></g><path d="M157.25,446.26l-20,20,20,20H134.38l-20-20,20-20ZM134.38,412,97.21,449.12l11.44,11.44L157.25,412Z" fill="url(#radial-gradient)"/><path d="M164.47,431.93h19.92v3.87H168.53v11.8h14.38v3.87H168.53v14.94h-4.06Zm24.9,0h4v34.48h-4Zm19,35.22a9.19,9.19,0,0,1-6.83-2.58c-1.47-1.66-2.21-4.24-2.21-7.38V441.7h4.06v14.94c0,2.39.55,4.05,1.66,5.16a5.81,5.81,0,0,0,4.24,1.66,6.24,6.24,0,0,0,3.69-1.11,6.69,6.69,0,0,0,2.58-3,8.38,8.38,0,0,0,.92-3.68V441.89h4.06v24.7h-3.88v-3.5h-.18a9.16,9.16,0,0,1-3.32,3.14,13.1,13.1,0,0,1-4.79.92Z" fill="#fff"/><path id="a" d="M236.38,466.78a7.54,7.54,0,0,1-2.76-.55,8.47,8.47,0,0,1-2.21-1.3,6.53,6.53,0,0,1-1.48-2.21,7,7,0,0,1-.55-3V445.39h-4.24V441.7h4.24v-7h4.05v7h5.9v3.69h-5.9v13.46a4.37,4.37,0,0,0,.74,2.95,3.09,3.09,0,0,0,2.58,1.11,5.25,5.25,0,0,0,2.77-.74v4.06c-.55.18-.92.36-1.48.55Z" fill="#fff"/><path d="M253.72,466.78a7.55,7.55,0,0,1-2.77-.55,8.64,8.64,0,0,1-2.21-1.3,6.68,6.68,0,0,1-1.48-2.21,7,7,0,0,1-.55-3V445.39h-4.06V441.7h4.24v-7H251v7h5.9v3.69H251v13.46a4.37,4.37,0,0,0,.74,2.95,3.08,3.08,0,0,0,2.58,1.11,5.27,5.27,0,0,0,2.77-.74v4.06c-.56.18-.93.36-1.48.55Z" fill="#fff"/><path d="M271.79,467.15a11.93,11.93,0,0,1-10.7-6.27,13.57,13.57,0,0,1-1.47-6.64,15.94,15.94,0,0,1,1.47-6.64,11.79,11.79,0,0,1,4.24-4.79,12.08,12.08,0,0,1,12.54-.19,10.43,10.43,0,0,1,4.06,4.43,14.48,14.48,0,0,1,1.47,6.45,2.78,2.78,0,0,1-.18,1.29H263.67a12.43,12.43,0,0,0,1.29,4.8,8.1,8.1,0,0,0,3.14,3,10,10,0,0,0,3.87.92c3.14,0,5.53-1.48,7.38-4.43l3.5,1.66a13.8,13.8,0,0,1-4.43,4.8,12.69,12.69,0,0,1-6.63,1.66Zm7-15.68a6.85,6.85,0,0,0-.92-3.13,6.37,6.37,0,0,0-2.4-2.58,7,7,0,0,0-4.05-1.11,7.26,7.26,0,0,0-5,1.85,8.71,8.71,0,0,0-2.58,4.79l14.93.18Zm9.22-9.58h3.87v3.87h.19a7.81,7.81,0,0,1,2.77-3.32,7.72,7.72,0,0,1,4.42-1.29,7.6,7.6,0,0,1,2.95.55v4.43a7.4,7.4,0,0,0-3.5-.74,7.52,7.52,0,0,0-3.32.92,8.68,8.68,0,0,0-2.4,2.77,8.39,8.39,0,0,0-.92,3.69v13.82H288v-24.7Z" fill="#fff"/></svg>